<?xml version="1.0" encoding="iso-8859-1"?>
<!-- Generator: Adobe Illustrator 19.0.0, SVG Export Plug-In . SVG Version: 6.00 Build 0)  -->
<svg version="1.1" id="Capa_1" xmlns="http://www.w3.org/2000/svg" xmlns:xlink="http://www.w3.org/1999/xlink" x="0px" y="0px"
	 viewBox="0 0 468.299 468.299" style="enable-background:new 0 0 468.299 468.299;" xml:space="preserve">
<path style="fill:#E56353;" d="M398.203,279.125c-0.961-0.083-1.942-0.104-2.924-0.104H292.571
	c-25.859,0-46.831,20.951-46.831,46.811l-0.283,61.414h-70.165c-45.149,4.217-34.336-95.382-22.15-180.289h-29.244
	c-42.125,75.191-38.811,213.061,13.368,213.061H442.09v-94.185C442.09,300.953,422.705,280.629,398.203,279.125z"/>
<path style="fill:#27A2DB;" d="M95.929,180.117c-6.464,0.293-11.647,8.134-11.647,17.787s5.183,17.494,11.647,17.787V180.117z"/>
<path style="fill:#64798A;" d="M132.704,183.592l-5.602-2.809l17.229-34.352c3.193-6.371,9.605-10.328,16.732-10.328h0.433v6.266
	h-0.433c-4.741,0-9.006,2.632-11.131,6.87L132.704,183.592z"/>
<path style="fill:#3A556A;" d="M168.96,161.255c-4.846,0.313-9.42-9.88-10.235-22.768c-0.815-12.888,2.444-23.583,7.269-23.875
	L168.96,161.255z"/>
<g>
	<path style="fill:#CE412D;" d="M166.99,419.933h-15.958c-0.042-35.071-28.471-63.814-63.521-63.814
		c-3.655,0-7.227,0.313-10.716,0.919c7.29-2.757,15.186-4.282,23.416-4.282C137.099,352.756,166.99,383.044,166.99,419.933z"/>
	<path style="fill:#CE412D;" d="M442.09,325.831v94.185h-18.883c0.313-16.147-4.366-71.354-79.292-95.042
		c0,0,30.643-9.065,73.819,30.288c0,0,3.572-30.497-19.53-76.138C422.705,280.629,442.09,300.953,442.09,325.831z"/>
</g>
<path style="fill:#2F4859;" d="M444.282,265.339c0,13.285-10.757,24.022-24.022,24.022H267.589
	c-13.285,0-24.022-10.737-24.022-24.022c0-13.264,10.736-24.022,24.022-24.022h152.672
	C433.525,241.317,444.282,252.075,444.282,265.339z"/>
<path style="fill:#CE412D;" d="M419.27,419.933h-15.958c-0.042-35.071-28.471-63.814-63.521-63.814
	c-3.655,0-7.227,0.313-10.716,0.919c7.29-2.757,15.186-4.282,23.416-4.282C389.379,352.756,419.27,383.044,419.27,419.933z"/>
<path style="fill:#2F4859;" d="M388.099,420.02c0,26.654-21.62,48.273-48.315,48.273c-26.654,0-48.273-21.619-48.273-48.273
	c0-26.674,21.619-48.273,48.273-48.273C366.48,371.747,388.099,393.345,388.099,420.02z"/>
<circle style="fill:#EBF0F3;" cx="339.803" cy="420.027" r="22.322"/>
<path style="fill:#2F4859;" d="M185.163,194.423c0,3.175-2.569,5.744-5.744,5.744H137.83v-11.489h41.589
	C182.594,188.678,185.163,191.248,185.163,194.423z"/>
<path style="fill:#D5D6DB;" d="M152.532,175.79h-41.864v44.214h41.864c3.413,0,6.179-2.767,6.179-6.18V181.97
	C158.712,178.557,155.945,175.79,152.532,175.79z"/>
<g>
	<path style="fill:#2F4859;" d="M110.682,173.663v48.461c0,2.089-1.692,3.802-3.802,3.802h-8.146c-2.089,0-3.781-1.713-3.781-3.802
		v-48.461c0-2.089,1.692-3.781,3.781-3.781h8.146C108.99,169.882,110.682,171.574,110.682,173.663z"/>
	<ellipse style="fill:#2F4859;" cx="87.518" cy="420.027" rx="48.297" ry="48.272"/>
</g>
<circle style="fill:#EBF0F3;" cx="87.518" cy="420.027" r="22.322"/>
<g>
	<path style="fill:#D15241;" d="M151.025,419.989H24.017c0-35.081,28.434-63.879,63.494-63.879
		C122.592,356.109,151.025,384.908,151.025,419.989z"/>
	<path style="fill:#D15241;" d="M403.304,419.989H276.296c0-35.081,28.434-63.879,63.494-63.879
		C374.871,356.109,403.304,384.908,403.304,419.989z"/>
</g>
<path style="fill:#F7BE56;" d="M289.429,118.935c-4.108,8.266-12.734,13.046-24.3,15.538
	c-12.131-12.257-13.689-29.548-13.689-29.548l24.291-15.538C275.73,89.387,277.298,106.678,289.429,118.935z"/>
<g>
	<path style="fill:#D5D6DB;" d="M215.076,345.555l-13.792,33.426c-4.35,1.904-8.267,1.59-11.521-2.109l5.103-35.459L215.076,345.555
		z"/>
	<path style="fill:#D5D6DB;" d="M181.65,374.113c-0.243-0.324,14.117-34.805,14.117-34.805l-12.494-9.817l-12.007,41.134
		C174.058,376.482,177.538,377.515,181.65,374.113z"/>
</g>
<path style="fill:#CE412D;" d="M206.37,387.245c-47.218,8.218-53.69-8.505-52.94-9.878c8.241-0.749,14.672-3.684,18.482-9.553
	c1.123,3.934,10.614,3.372,10.614,3.372l0.625,5.495h0.063c4.558,2.623,7.18-2.623,7.18-2.623l12.488,0.25
	C207.689,378.304,206.37,387.245,206.37,387.245z"/>
<path style="fill:#2D93BA;" d="M181.65,330.464l14.279,11.358l27.26-97.033c0,0-20.607-11.521-29.694,45.271L181.65,330.464z"/>
<path style="fill:#1C75A1;" d="M354.622,214.609c0,0,12.656,39.267-68.475,41.215l-31.803-1.947c0,0-21.094-3.894-34.4,76.588
	l-3.813,18.985l-22.636-6.815l13.894-82.37c2.597-15.396,12.771-28.504,27.124-34.649c10.174-4.356,23.202-7.344,38.329-5.165
	c37.658,5.424,35.049-20.916,35.049-20.916L354.622,214.609z"/>
<path style="fill:#E1E6E9;" d="M202.171,177.923l70.712,17.655l-1.502-43.602h21.743v61.822l-69.935-18.976l-25.151-6.175
	l0.027-7.529C198.073,178.973,200.09,177.403,202.171,177.923z"/>
<path style="fill:#FCD462;" d="M283.794,70.403c0,0,0.613,38.086-26.043,45.018c-26.656,6.941-33.471-11.07-33.471-11.07
	c12.783-8.762,7.915-11.975,7.915-11.975c-11.196,11.517-15.217,6.562-15.217,6.562c-1.207-8.821-7.536-11.498-7.536-11.498
	c-15.704-1.83-7.876-11.001-7.876-11.001c13.99-3.398,18.138-15.821,18.138-42.75c0,0,5.316-4.547,6.776-7.487
	c1.46-2.95,1.577,0.263,10.339,0.019c8.762-0.243,4.624,1.46,26.89,1.344c22.275-0.127,9.736,7.789,17.777,12.287
	C289.509,44.35,283.794,70.403,283.794,70.403z"/>
<path style="fill:#3A556A;" d="M374.745,209.089c0,0-2.921,25.313-55.825,12.014c-33.91-28.594-55.396-58.22-56.467-89.569
	c0,0,25.517-4.254,23.911-16.063c0,0,27.689-4.712,62.095,50.781C348.459,166.252,346.833,184.107,374.745,209.089z"/>
<path style="fill:#F7BE56;" d="M225.506,193.434l-7.915,4.741c-23.132-7.146-31.865,5.053-34.708,11.235
	c-0.876,1.898-3.252,2.522-4.975,1.334c-5.812-4.04-6.474-11.235-2.95-20.981c1.266-3.476,4.147-6.63,7.847-6.873
	C194.469,182.111,212.11,182.481,225.506,193.434z"/>
<path style="fill:#D5D6DB;" d="M238.202,70.199c-14.282,12.812-18.947-5.439-18.947-5.439
	C224.558,60.845,233.314,62.712,238.202,70.199z"/>
<circle style="fill:#DC8744;" cx="226.338" cy="67.796" r="2.785"/>
<path style="fill:#FCD462;" d="M226.334,67.794c0,0.769-0.623,1.392-1.392,1.392c-0.759,0-1.383-0.623-1.383-1.392
	c0-0.769,0.623-1.392,1.383-1.392C225.711,66.402,226.334,67.025,226.334,67.794z"/>
<path style="fill:#2F4859;" d="M243.751,59.431c-0.175,0.097-0.38,0.088-0.536-0.019c-1.723-1.149-3.398-2.21-5.111-2.959
	c-1.713-0.74-3.456-1.168-5.179-1.1c-1.723,0.039-3.437,0.536-5.141,1.305c-1.684,0.779-3.359,1.84-4.994,3.018l-0.039,0.029
	c-0.224,0.165-0.536,0.107-0.691-0.107c-0.117-0.156-0.127-0.351-0.049-0.506c0.944-2.015,2.434-3.69,4.293-4.985
	c1.84-1.314,4.167-2.142,6.562-2.162c1.197-0.019,2.395,0.165,3.505,0.545c1.12,0.36,2.171,0.857,3.096,1.509
	c1.879,1.256,3.378,2.891,4.459,4.751C244.063,58.983,243.985,59.295,243.751,59.431z"/>
<path style="fill:#D5D6DB;" d="M309.234,228.794c-3.037,6.182-10.028,9.346-16.677,7.594c-17.388-4.595-49.458-22.003-78.616-36.869
	l1.626-13.795l66.059,20.039c3.749,1.137,7.479-1.826,7.218-5.735l-2.207-33.123l26.286-4.702
	C312.923,162.201,319.612,207.629,309.234,228.794z"/>
<path style="fill:#2F4859;" d="M316.894,162.265c-0.748,6.556-31.095,13.174-31.095,13.174
	c-10.552-20.854-13.113-36.152-2.061-41.959c5.058-2.684,11.427-1.998,16.11,1.312C312.399,143.533,316.894,162.265,316.894,162.265
	z"/>
<g>
	<path style="fill:#DC8744;" d="M233.894,32.415c-2.132,3.963-4.517,7.828-7.613,11.079c-3.106,3.252-6.98,5.89-11.342,6.961
		c-3.339,0.828-6.902,0.711-10.184-0.321c2.56-0.097,5.121-0.195,7.672-0.282c0.721-0.029,1.548-0.117,1.957-0.711
		c0.467-0.672,0.068-1.655-0.613-2.103c-0.681-0.438-1.538-0.487-2.356-0.477c-4.177,0-8.655,0.701-12.287-1.363
		c-1.762-0.993-3.125-2.561-4.459-4.089c-1.013-1.159-2.054-2.376-2.473-3.865c-0.263-0.935-0.253-2.181,0.282-3.037
		c0.857-1.353,1.071-0.73,1.509,0.389c0.847,2.161,2.298,3.933,4.274,5.179c2.395,1.519,5.247,2.181,8.071,2.463
		C216.36,43.242,226.758,39.532,233.894,32.415z"/>
	<path style="fill:#DC8744;" d="M309.467,107.272c0,0-9.931,12.744-23.668-2.969c-4.449-5.092-4.274-12.744,0.302-17.719
		l5.238-0.857c0,0,3.777,16.424,12.53,9.385c-0.234,0.409-5.462,8.967-13.621,2.785C290.249,97.897,289.762,107.516,309.467,107.272
		z"/>
</g>
<path style="fill:#64798A;" d="M285.001,89.738c0,0-1.246,14.448-23.911,27.688c-1.373,0.798-2.901,1.188-4.41,1.188
	c-2.278,0-4.537-0.886-6.231-2.58c28.477-13.99,29.937-30.911,29.937-30.911L285.001,89.738z"/>
<path style="fill:#FFFFFF;" d="M89.696,187.28c-1.861,3.296-2.693,6.959-2.694,10.623c0.007,3.665,0.842,7.324,2.694,10.625
	c-1.285-1.395-2.25-3.109-2.861-4.934c-0.628-1.825-0.918-3.76-0.93-5.691c0.012-1.931,0.3-3.867,0.927-5.691
	C87.444,190.387,88.409,188.673,89.696,187.28z"/>
<g>
	<path style="fill:#DC8744;" d="M248.649,44.005l-6.431-3.621c1.373-0.5,2.934-0.375,4.183,0.437
		C247.524,41.507,248.336,42.694,248.649,44.005z"/>
	<path style="fill:#DC8744;" d="M284.862,64.548c-2.809,1.311-5.931,1.873-8.991,2.435c-2.434,0.437-4.869,0.936-7.242,1.373
		c-1.686,0.313-3.497,0.624-5.058,0c-1.311-0.5-2.247-1.561-3.184-2.623c-1.748-1.935-3.558-3.871-5.306-5.807
		c-1.313-1.436-2.686-2.997-3.122-4.932c-0.313-1.187-0.188-2.498-0.75-3.559c-0.563-1.187-1.811-1.936-2.248-3.184
		c-0.498-1.187-0.123-2.56-0.248-3.872c0-0.124-0.063-0.249-0.063-0.374L284.862,64.548z"/>
</g>
<path style="fill:#E56353;" d="M291.096,90.478c0,0-13.143,9.006-14.847-12.17c-1.704-21.175-34.319-34.562-34.319-34.562
	c-26.948-3.388-36.811,3.592-45.028-4.624c0,0,61.092-69.854,99.305-22.879C296.207,16.243,331.499,42.286,291.096,90.478z"/>
<g>
</g>
<g>
</g>
<g>
</g>
<g>
</g>
<g>
</g>
<g>
</g>
<g>
</g>
<g>
</g>
<g>
</g>
<g>
</g>
<g>
</g>
<g>
</g>
<g>
</g>
<g>
</g>
<g>
</g>
</svg>
